<svg xmlns="http://www.w3.org/2000/svg" width="1920" height="1080"><path d="M1051,1604L651,1646L1501,1617Z" fill="#ededed" stroke="#ededed" stroke-width="1.51"/><path d="M317,-492L1001,-430L1625,-628Z" fill="#f5f5f5" stroke="#f5f5f5" stroke-width="1.51"/><path d="M-546,-657L317,-492L1625,-628Z" fill="#f9f9f9" stroke="#f9f9f9" stroke-width="1.51"/><path d="M1501,1617L651,1646L2194,1676Z" fill="#ebebeb" stroke="#ebebeb" stroke-width="1.51"/><path d="M1868,1610L1501,1617L2194,1676Z" fill="#ebebeb" stroke="#ebebeb" stroke-width="1.51"/><path d="M2117,1041L2194,1676L2206,1045Z" fill="#ebebeb" stroke="#ebebeb" stroke-width="1.51"/><path d="M1914,503L2078,826L2274,272Z" fill="#eeeeee" stroke="#eeeeee" stroke-width="1.51"/><path d="M2260,-57L2274,272L2349,-350Z" fill="#f1f1f1" stroke="#f1f1f1" stroke-width="1.51"/><path d="M2274,272L2078,826L2448,818Z" fill="#ededed" stroke="#ededed" stroke-width="1.51"/><path d="M2078,826L2206,1045L2448,818Z" fill="#ebebeb" stroke="#ebebeb" stroke-width="1.51"/><path d="M2206,1045L2194,1676L2448,818Z" fill="#ebebeb" stroke="#ebebeb" stroke-width="1.51"/><path d="M2349,-350L2274,272L2448,818Z" fill="#f0f0f0" stroke="#f0f0f0" stroke-width="1.51"/><path d="M2117,1041L1868,1610L2194,1676Z" fill="#ebebeb" stroke="#ebebeb" stroke-width="1.51"/><path d="M1975,-197L2260,-57L2349,-350Z" fill="#f2f2f2" stroke="#f2f2f2" stroke-width="1.51"/><path d="M2092,-497L1975,-197L2349,-350Z" fill="#f2f2f2" stroke="#f2f2f2" stroke-width="1.51"/><path d="M1707,1215L1868,1610L2117,1041Z" fill="#ebebeb" stroke="#ebebeb" stroke-width="1.51"/><path d="M2078,826L2117,1041L2206,1045Z" fill="#ebebeb" stroke="#ebebeb" stroke-width="1.51"/><path d="M2260,-57L1975,-197L2274,272Z" fill="#f1f1f1" stroke="#f1f1f1" stroke-width="1.51"/><path d="M1975,-197L1914,503L2274,272Z" fill="#f0f0f0" stroke="#f0f0f0" stroke-width="1.51"/><path d="M1633,387L1914,503L1975,-197Z" fill="#f0f0f0" stroke="#f0f0f0" stroke-width="1.51"/><path d="M1548,9L1633,387L1975,-197Z" fill="#f1f1f1" stroke="#f1f1f1" stroke-width="1.51"/><path d="M2078,826L1707,1215L2117,1041Z" fill="#ebebeb" stroke="#ebebeb" stroke-width="1.51"/><path d="M1625,-628L1975,-197L2092,-497Z" fill="#f2f2f2" stroke="#f2f2f2" stroke-width="1.51"/><path d="M1914,503L1477,576L2078,826Z" fill="#ededed" stroke="#ededed" stroke-width="1.51"/><path d="M1477,576L1707,1215L2078,826Z" fill="#ebebeb" stroke="#ebebeb" stroke-width="1.51"/><path d="M404,1595L-268,1625L651,1646Z" fill="#f1f1f1" stroke="#f1f1f1" stroke-width="1.51"/><path d="M1625,-628L1548,9L1975,-197Z" fill="#f2f2f2" stroke="#f2f2f2" stroke-width="1.51"/><path d="M1477,576L1242,969L1707,1215Z" fill="#ebebeb" stroke="#ebebeb" stroke-width="1.51"/><path d="M1707,1215L1501,1617L1868,1610Z" fill="#ebebeb" stroke="#ebebeb" stroke-width="1.51"/><path d="M1633,387L1477,576L1914,503Z" fill="#eeeeee" stroke="#eeeeee" stroke-width="1.51"/><path d="M1001,-430L1548,9L1625,-628Z" fill="#f2f2f2" stroke="#f2f2f2" stroke-width="1.51"/><path d="M1242,969L1501,1617L1707,1215Z" fill="#ebebeb" stroke="#ebebeb" stroke-width="1.51"/><path d="M1242,969L1051,1604L1501,1617Z" fill="#ececec" stroke="#ececec" stroke-width="1.51"/><path d="M1059,464L1477,576L1633,387Z" fill="#efefef" stroke="#efefef" stroke-width="1.51"/><path d="M1548,9L1025,111L1633,387Z" fill="#f1f1f1" stroke="#f1f1f1" stroke-width="1.51"/><path d="M1025,111L1059,464L1633,387Z" fill="#f1f1f1" stroke="#f1f1f1" stroke-width="1.51"/><path d="M1059,464L1162,604L1477,576Z" fill="#efefef" stroke="#efefef" stroke-width="1.51"/><path d="M1162,604L1242,969L1477,576Z" fill="#ededed" stroke="#ededed" stroke-width="1.51"/><path d="M1001,-430L1025,111L1548,9Z" fill="#f3f3f3" stroke="#f3f3f3" stroke-width="1.51"/><path d="M-546,-657L18,-485L317,-492Z" fill="#f9f9f9" stroke="#f9f9f9" stroke-width="1.51"/><path d="M827,1278L1051,1604L1242,969Z" fill="#ededed" stroke="#ededed" stroke-width="1.51"/><path d="M1162,604L812,692L1242,969Z" fill="#efefef" stroke="#efefef" stroke-width="1.51"/><path d="M812,692L827,1278L1242,969Z" fill="#eeeeee" stroke="#eeeeee" stroke-width="1.51"/><path d="M649,-270L658,-37L1001,-430Z" fill="#f6f6f6" stroke="#f6f6f6" stroke-width="1.51"/><path d="M1001,-430L658,-37L1025,111Z" fill="#f5f5f5" stroke="#f5f5f5" stroke-width="1.51"/><path d="M1059,464L812,692L1162,604Z" fill="#f0f0f0" stroke="#f0f0f0" stroke-width="1.51"/><path d="M601,159L538,586L812,692Z" fill="#f3f3f3" stroke="#f3f3f3" stroke-width="1.51"/><path d="M317,-492L649,-270L1001,-430Z" fill="#f7f7f7" stroke="#f7f7f7" stroke-width="1.51"/><path d="M827,1278L651,1646L1051,1604Z" fill="#eeeeee" stroke="#eeeeee" stroke-width="1.51"/><path d="M1025,111L601,159L1059,464Z" fill="#f3f3f3" stroke="#f3f3f3" stroke-width="1.51"/><path d="M601,159L812,692L1059,464Z" fill="#f3f3f3" stroke="#f3f3f3" stroke-width="1.51"/><path d="M658,-37L601,159L1025,111Z" fill="#f5f5f5" stroke="#f5f5f5" stroke-width="1.51"/><path d="M538,586L249,1076L812,692Z" fill="#f1f1f1" stroke="#f1f1f1" stroke-width="1.51"/><path d="M404,1595L651,1646L827,1278Z" fill="#f0f0f0" stroke="#f0f0f0" stroke-width="1.51"/><path d="M249,1076L404,1595L827,1278Z" fill="#f0f0f0" stroke="#f0f0f0" stroke-width="1.51"/><path d="M812,692L249,1076L827,1278Z" fill="#f0f0f0" stroke="#f0f0f0" stroke-width="1.51"/><path d="M157,937L249,1076L538,586Z" fill="#f1f1f1" stroke="#f1f1f1" stroke-width="1.51"/><path d="M348,403L538,586L601,159Z" fill="#f4f4f4" stroke="#f4f4f4" stroke-width="1.51"/><path d="M155,-130L246,24L649,-270Z" fill="#f7f7f7" stroke="#f7f7f7" stroke-width="1.51"/><path d="M649,-270L246,24L658,-37Z" fill="#f7f7f7" stroke="#f7f7f7" stroke-width="1.51"/><path d="M246,24L601,159L658,-37Z" fill="#f6f6f6" stroke="#f6f6f6" stroke-width="1.51"/><path d="M317,-492L155,-130L649,-270Z" fill="#f8f8f8" stroke="#f8f8f8" stroke-width="1.51"/><path d="M246,24L348,403L601,159Z" fill="#f6f6f6" stroke="#f6f6f6" stroke-width="1.51"/><path d="M348,403L157,937L538,586Z" fill="#f3f3f3" stroke="#f3f3f3" stroke-width="1.51"/><path d="M246,24L13,189L348,403Z" fill="#f7f7f7" stroke="#f7f7f7" stroke-width="1.51"/><path d="M-178,1506L-268,1625L404,1595Z" fill="#f2f2f2" stroke="#f2f2f2" stroke-width="1.51"/><path d="M249,1076L-76,1168L404,1595Z" fill="#f1f1f1" stroke="#f1f1f1" stroke-width="1.51"/><path d="M-76,1168L-178,1506L404,1595Z" fill="#f1f1f1" stroke="#f1f1f1" stroke-width="1.51"/><path d="M18,-485L155,-130L317,-492Z" fill="#f9f9f9" stroke="#f9f9f9" stroke-width="1.51"/><path d="M-317,787L157,937L348,403Z" fill="#f3f3f3" stroke="#f3f3f3" stroke-width="1.51"/><path d="M13,189L-317,787L348,403Z" fill="#f5f5f5" stroke="#f5f5f5" stroke-width="1.51"/><path d="M157,937L-76,1168L249,1076Z" fill="#f1f1f1" stroke="#f1f1f1" stroke-width="1.51"/><path d="M155,-130L13,189L246,24Z" fill="#f8f8f8" stroke="#f8f8f8" stroke-width="1.51"/><path d="M-458,488L-317,787L13,189Z" fill="#f6f6f6" stroke="#f6f6f6" stroke-width="1.51"/><path d="M18,-485L-455,-206L155,-130Z" fill="#f9f9f9" stroke="#f9f9f9" stroke-width="1.51"/><path d="M-455,-206L13,189L155,-130Z" fill="#f8f8f8" stroke="#f8f8f8" stroke-width="1.51"/><path d="M-317,787L-76,1168L157,937Z" fill="#f2f2f2" stroke="#f2f2f2" stroke-width="1.51"/><path d="M-546,-657L-455,-206L18,-485Z" fill="#fafafa" stroke="#fafafa" stroke-width="1.51"/><path d="M-455,-206L-458,488L13,189Z" fill="#f8f8f8" stroke="#f8f8f8" stroke-width="1.51"/><path d="M-592,1033L-178,1506L-76,1168Z" fill="#f2f2f2" stroke="#f2f2f2" stroke-width="1.51"/><path d="M-317,787L-592,1033L-76,1168Z" fill="#f2f2f2" stroke="#f2f2f2" stroke-width="1.51"/><path d="M-592,1033L-268,1625L-178,1506Z" fill="#f2f2f2" stroke="#f2f2f2" stroke-width="1.51"/><path d="M-458,488L-592,1033L-317,787Z" fill="#f4f4f4" stroke="#f4f4f4" stroke-width="1.51"/><path d="M-592,1033L-458,488L-455,-206Z" fill="#f6f6f6" stroke="#f6f6f6" stroke-width="1.51"/><path d="M-546,-657L-592,1033L-455,-206Z" fill="#f9f9f9" stroke="#f9f9f9" stroke-width="1.51"/></svg>